<?xml version="1.0" encoding="utf-8"?>
<!-- Generator: Adobe Illustrator 16.0.0, SVG Export Plug-In . SVG Version: 6.00 Build 0)  -->
<!DOCTYPE svg PUBLIC "-//W3C//DTD SVG 1.1//EN" "http://www.w3.org/Graphics/SVG/1.1/DTD/svg11.dtd">
<svg version="1.1" id="图层_1" xmlns="http://www.w3.org/2000/svg" xmlns:xlink="http://www.w3.org/1999/xlink" x="0px" y="0px"
	 width="219px" height="48px" viewBox="0 0 219 48" enable-background="new 0 0 219 48" xml:space="preserve">
<g id="Group_2_" transform="translate(63.000000, 6.000000)">
	<path id="Shape_27_" fill="#333333" d="M36.559,5.915V0.836H0.802v5.079h14.796l-0.616,3.232H2.497v26.629h27.435
		c3.628,0,5.086-2.322,5.086-5.477V9.147H22.379l0.771-3.232H36.559z M29.006,29.466c0,1.293-0.27,1.539-1.541,1.539H8.507v-6.004
		h20.499V29.466L29.006,29.466z M29.006,13.767v6.002H8.507v-6.002H29.006z"/>
	<polygon id="Shape_26_" fill="#333333" points="56.52,1.761 56.52,0.222 62.221,0.222 62.221,1.761 75.861,1.761 75.861,6.07 
		46.902,6.07 46.902,35.776 41.971,35.776 41.971,1.761 	"/>
	<path id="Shape_25_" fill="#333333" d="M67.076,31.005l-0.926-0.461l9.404-5.85v-3.539H48.889v3.846l7.398,5.389l-1.619,0.615
		c-0.412,0.207-1.131,0.31-2.158,0.31h-3.621v4.463h5.471c1.334-0.104,2.568-0.41,3.699-0.925l2.854-1.385l3.392,1.693
		c0.924,0.408,1.948,0.615,3.081,0.615h8.322v-4.309h-5.812C68.871,31.468,67.766,31.349,67.076,31.005z M60.758,27.772
		l-2.467-1.385L55.98,25h9.246L60.758,27.772z"/>
	<path id="Shape_24_" fill="#333333" d="M74.166,8.934V7.279H69.08v1.654H55.363V7.126h-5.086v1.961h-1.695v4.31h1.85v6.351h19.883
		c2.525,0,3.853-1.244,3.853-3.808v-2.696h1.694v-4.31H74.166L74.166,8.934z M69.234,15.385c0,0.821-0.336,1.131-1.146,1.131H55.518
		v-3.272h13.715v2.142H69.234z"/>
	<polygon id="Shape_23_" fill="#333333" points="86.246,0.99 86.246,4.686 88.096,4.686 88.096,0.378 92.719,0.378 92.719,4.686 
		94.723,4.686 94.723,0.99 98.535,0.99 98.113,4.686 99.191,4.686 99.191,9.303 92.719,9.303 92.719,18.384 88.096,18.384 
		88.096,9.303 81.467,9.303 81.467,4.686 82.701,4.686 82.279,0.99 	"/>
	<path id="Shape_22_" fill="#333333" d="M98.113,25.157h1.389v-4.311h-1.389v-1.693h-4.316v1.693h-7.242v-1.539h-4.316v1.539h-0.771
		v4.311h0.771v3.539c0,0,4.451,2.916,4.974,3.26c-0.353,0.281-0.801,0.434-1.524,0.434h-4.217v3.388h5.086
		c0.717,0,1.489-0.206,2.312-0.615l1.85-1.231l1.748,1.166c0.607,0.406,1.49,0.682,2.732,0.682h4.305v-3.387h-3.237
		c-0.31,0-0.67-0.104-1.078-0.308l-0.924-0.616l3.852-3.386v-2.925H98.113z M93.797,26.697l-3.08,2.461l-4.162-2.771v-1.23h7.242
		V26.697z"/>
	<path id="Shape_21_" fill="#333333" d="M99.502,17.769h-2.34c-1.555,0-2.604-0.622-2.902-2.155l-0.953-4.926h4.01l0.552,3.126
		c0.098,0.543,0.252,0.723,0.854,0.723c0.229,0,0.779,0,0.779,0V17.769L99.502,17.769z"/>
	<path id="Shape_20_" fill="#333333" d="M81.439,14.536c0,0,0.551,0,0.778,0c0.603,0,0.759-0.18,0.854-0.723l0.553-3.126h4.008
		l-0.953,4.926c-0.297,1.533-1.346,2.155-2.902,2.155h-2.338V14.536L81.439,14.536z"/>
	<path id="Shape_19_" fill="#333333" d="M116.301,2.685h-9.094l0.154-2.154h-4.935l-0.321,3.401
		c-0.086,0.916-0.478,1.062-1.138,1.062h-0.852v4.464h2.93c1.57,0,3.088-0.382,3.679-2.155h9.575L116.301,2.685L116.301,2.685z"/>
	<path id="Shape_18_" fill="#333333" d="M105.82,11.304l2.312,6.312l2.466-8.158h5.237l-5.237,16.161l2.312,5.695
		c0.202,0.514,0.616,0.77,1.231,0.77h2.004v3.693h-4.217c-1.539,0-2.137-0.562-2.564-1.539l-1.079-2.463l-0.647,1.727
		c-0.457,1.221-1.4,2.275-3.058,2.275h-4.31v-3.539h2.213c0.31,0,0.611,0.002,0.777-0.498c0.221-0.661,2.25-6.734,2.25-6.734
		l-4.932-13.701H105.82L105.82,11.304z"/>
	<path id="Shape_17_" fill="#333333" d="M120.096,11.457h7.707v18.931c0,1.158,0.852,1.234,1.629,1.234h1.916v4.154h-4.473
		c-3.119,0-4.158-1.906-4.158-4.658V15.921h-2.621V11.457L120.096,11.457z"/>
	<rect id="Rectangle-path_1_" x="120.559" y="0.837" fill="#333333" width="9.709" height="4.926"/>
	<path id="Shape_16_" fill="#333333" d="M150.383,30.351v-9.967h0.301c1.99,0,3.781-1.283,3.781-3.667V2.992h-2.305l0.307-2.462
		h-5.703v2.462h-5.82V0.53h-5.702l0.309,2.462h-2.467v17.392H145.3v10.707c0,3.178,1.41,4.687,5.136,4.687h4.032V31.16h-3.312
		C150.539,31.159,150.383,30.911,150.383,30.351z M149.227,14.997c0,0.516-0.26,0.771-0.771,0.771h-9.979V7.764h10.75V14.997z"/>
	<path id="Shape_15_" fill="#333333" d="M135.605,30.304c-0.16,1.074-0.623,1.317-1.621,1.317h-1.209v4.154h3.235
		c2.23,0.022,3.906-1.099,4.314-3.693l1.647-10.483h-5.082L135.605,30.304z"/>
</g>
<g id="Group_3_">
	
		<linearGradient id="Shape_1_" gradientUnits="userSpaceOnUse" x1="-183.7612" y1="-266.1719" x2="-183.7612" y2="-265.1558" gradientTransform="matrix(47.4726 0 0 47.407 8748.374 12618.5312)">
		<stop  offset="0" style="stop-color:#00EE99"/>
		<stop  offset="1" style="stop-color:#0099FF"/>
	</linearGradient>
	<path id="Shape_29_" fill="url(#Shape_1_)" d="M40.397,0.297H2.187c-0.655,0-1.188,0.53-1.188,1.186v23.7
		c0,0.205,0.057,0.394,0.146,0.562c0.202,0.369,0.59,0.622,1.04,0.622h3.561v15.404c0,0.653,0.532,1.186,1.188,1.186h22.548v2.37
		H16.48c-0.62,0-1.174,0.452-1.232,1.066c-0.068,0.707,0.486,1.304,1.18,1.304l0,0h17.256c0.504,0,0.986-0.199,1.344-0.556
		l8.142-8.129c0.356-0.356,0.557-0.838,0.557-1.342V10.322c0-0.502-0.2-0.985-0.557-1.341l-3.396-3.391
		c-0.356-0.355-0.839-0.556-1.344-0.556H21.227c-0.62,0-1.174,0.453-1.232,1.07c-0.065,0.706,0.489,1.298,1.182,1.298l17.059,0.001
		l3.117,3.113v26.954l-7.863,7.854h-1.631l-0.001-4.738H8.121l0,0l0,0v-0.003l14.54-14.517c0.261-0.262,0.649-0.348,0.996-0.221
		l3.375,1.228c0.597,0.216,1.266,0.067,1.716-0.38l9.535-9.521c0.926-0.926,0.927-2.426,0-3.353c-0.928-0.926-2.431-0.925-3.357,0
		L24.441,24.29c-0.26,0.262-0.648,0.348-0.996,0.221l-3.377-1.228c-0.597-0.217-1.266-0.068-1.715,0.38L8.121,33.882V7.406h8.307
		V7.405c0.695,0,1.249-0.592,1.182-1.299c-0.059-0.616-0.611-1.068-1.23-1.068H6.935c-0.654,0-1.187,0.53-1.187,1.186v17.774H3.374
		V2.668H40.2l5.899,5.888v30.881l-6.253,6.242c-0.464,0.463-0.464,1.215-0.001,1.677c0.464,0.462,1.216,0.463,1.68,0.001
		l6.391-6.383c0.357-0.356,0.557-0.838,0.557-1.34V8.36c0-0.503-0.199-0.985-0.557-1.341l-6.177-6.167
		C41.384,0.495,40.9,0.297,40.397,0.297z"/>
	
		<linearGradient id="Shape_2_" gradientUnits="userSpaceOnUse" x1="-171.0444" y1="-252.9307" x2="-171.0444" y2="-250.3944" gradientTransform="matrix(11.868 0 0 18.9647 2036.8931 4796.9375)">
		<stop  offset="0" style="stop-color:#00EE99"/>
		<stop  offset="1" style="stop-color:#0099FF"/>
	</linearGradient>
	<path id="Shape_28_" fill="url(#Shape_2_)" d="M11.682,45.326H3.373V29.923c0-0.654-0.531-1.185-1.187-1.185
		C1.53,28.738,1,29.269,1,29.923v16.596c0,0.654,0.533,1.185,1.188,1.185c0.022,0,0.042-0.005,0.062-0.007h9.432l0,0
		c0.655,0,1.186-0.531,1.186-1.186C12.867,45.858,12.337,45.326,11.682,45.326z"/>
</g>
</svg>
