<?xml version="1.0" encoding="utf-8"?>
<!-- Generator: Adobe Illustrator 16.0.0, SVG Export Plug-In . SVG Version: 6.00 Build 0)  -->
<!DOCTYPE svg PUBLIC "-//W3C//DTD SVG 1.1//EN" "http://www.w3.org/Graphics/SVG/1.1/DTD/svg11.dtd">
<svg version="1.1" id="图层_2" xmlns="http://www.w3.org/2000/svg" xmlns:xlink="http://www.w3.org/1999/xlink" x="0px" y="0px"
	 width="19px" height="15px" viewBox="0 0 19 15" enable-background="new 0 0 19 15" xml:space="preserve">
<g id="_x33_" transform="translate(0.000000, 192.000000)">
	
		<linearGradient id="皇冠-copy-2_1_" gradientUnits="userSpaceOnUse" x1="-282.5698" y1="78.9883" x2="-284.0723" y2="77.2625" gradientTransform="matrix(18.5437 -7.4921 -4.7677 -11.8005 5633.0659 -1379.6547)">
		<stop  offset="0" style="stop-color:#78B9FF"/>
		<stop  offset="1" style="stop-color:#3F1CF7"/>
	</linearGradient>
	<path id="皇冠-copy-2" fill="url(#皇冠-copy-2_1_)" d="M2.415-183.312l4.212,1.572l1.28-6.902
		c-0.491-0.091-0.927-0.424-1.128-0.922c-0.313-0.775,0.062-1.659,0.837-1.972s1.659,0.062,1.972,0.837
		c0.203,0.502,0.117,1.05-0.179,1.459l5.634,4.1l2.071-4.074c-0.288-0.12-0.531-0.352-0.657-0.665
		c-0.252-0.621,0.049-1.327,0.67-1.578c0.62-0.251,1.326,0.049,1.577,0.67c0.251,0.621-0.049,1.327-0.669,1.578
		c-0.063,0.025-0.127,0.045-0.191,0.06l1.002,6.802l-12.924,5.223l-3.924-5.645c-0.079,0.058-0.166,0.106-0.26,0.145
		c-0.621,0.25-1.327-0.049-1.578-0.67c-0.251-0.621,0.049-1.327,0.67-1.578c0.621-0.251,1.327,0.049,1.578,0.67
		C2.528-183.906,2.522-183.59,2.415-183.312z"/>
</g>
</svg>
